<svg width="1720" height="533" viewBox="0 0 1720 533" fill="none" xmlns="http://www.w3.org/2000/svg">
<g clip-path="url(#clip0_2355_393)">
<path d="M266.685 533H266.457C119.533 533 0 413.441 0 266.484C0 198.625 27.9127 130.994 76.6051 80.9224C127.349 28.7333 194.77 0 266.424 0C413.348 0 532.849 119.559 532.849 266.484L533.011 532.055L434.454 532.12L434.291 266.516C434.291 173.899 358.989 98.5794 266.424 98.5794C221.608 98.5794 179.266 116.725 147.25 149.661C116.308 181.489 98.5574 224.1 98.5574 266.484C98.5574 359.004 173.729 434.258 266.196 434.388C275.414 434.29 291.796 434.225 308.179 434.127C324.334 434.03 340.456 433.964 349.446 433.867L350.358 532.446C341.271 532.544 324.985 532.609 308.668 532.707C292.318 532.805 275.967 532.87 266.88 532.967H266.652L266.685 533Z" fill="#F2EDD9"/>
<path d="M349.348 349.589C321.728 349.654 294.076 349.719 266.457 349.784C220.24 348.775 182.947 310.626 182.914 264.953C182.882 219.377 219.914 180.056 266.457 180.088C312.348 180.121 350.39 218.4 349.999 264.953C349.771 293.165 349.576 321.377 349.348 349.589Z" fill="#F2EDD9"/>
<path d="M750.417 338.708H721.3V309.584H663.064V338.708H634.044V251.465C634.044 243.419 635.575 235.861 638.604 228.792C641.633 221.722 645.802 215.533 651.046 210.288C656.29 205.01 662.445 200.873 669.513 197.81C676.581 194.781 684.137 193.25 692.182 193.25C700.227 193.25 707.783 194.781 714.851 197.81C721.919 200.873 728.074 205.01 733.351 210.288C738.627 215.565 742.796 221.755 745.825 228.792C748.887 235.861 750.385 243.419 750.385 251.465V338.708H750.417ZM721.3 280.59V251.465C721.3 247.458 720.551 243.712 719.02 240.161C717.489 236.61 715.405 233.515 712.799 230.876C710.193 228.238 707.067 226.153 703.516 224.622C699.966 223.09 696.188 222.341 692.215 222.341C688.241 222.341 684.463 223.09 680.913 224.622C677.362 226.153 674.268 228.238 671.63 230.876C668.992 233.515 666.907 236.61 665.409 240.161C663.878 243.712 663.129 247.491 663.129 251.465V280.59H721.365H721.3Z" fill="#F2EDD9"/>
<path d="M876.692 338.708H870.015L859.267 323.788C856.629 326.133 853.828 328.381 850.897 330.433C847.965 332.486 844.871 334.277 841.614 335.809C838.357 337.34 835.035 338.545 831.615 339.425C828.195 340.304 824.743 340.76 821.225 340.76C813.571 340.76 806.406 339.327 799.664 336.46C792.922 333.593 787.059 329.586 782.011 324.504C776.962 319.39 772.989 313.33 770.09 306.359C767.191 299.354 765.726 291.731 765.726 283.489C765.726 275.247 767.191 267.689 770.09 260.652C772.989 253.616 776.962 247.524 782.011 242.376C787.059 237.229 792.922 233.222 799.664 230.29C806.406 227.391 813.571 225.925 821.225 225.925C823.668 225.925 826.176 226.12 828.781 226.544C831.387 226.935 833.927 227.619 836.403 228.531C838.878 229.443 841.191 230.649 843.34 232.147C845.49 233.646 847.346 235.47 848.812 237.62V186.897H876.692V338.773V338.708ZM848.812 283.424C848.812 279.645 848.096 275.964 846.63 272.413C845.164 268.862 843.21 265.734 840.702 262.965C838.194 260.229 835.263 258.014 831.941 256.385C828.586 254.723 825.036 253.909 821.225 253.909C817.414 253.909 813.864 254.593 810.51 255.929C807.155 257.264 804.256 259.219 801.781 261.76C799.305 264.301 797.384 267.396 795.951 271.045C794.55 274.693 793.834 278.831 793.834 283.424C793.834 287.431 794.55 291.21 795.951 294.794C797.384 298.377 799.305 301.537 801.781 304.241C804.256 306.945 807.155 309.062 810.51 310.626C813.864 312.19 817.414 312.972 821.225 312.972C825.036 312.972 828.586 312.157 831.941 310.496C835.295 308.834 838.227 306.652 840.702 303.915C843.21 301.179 845.164 298.019 846.63 294.468C848.096 290.917 848.812 287.236 848.812 283.457V283.424Z" fill="#F2EDD9"/>
<path d="M928.642 338.708L887.245 230.062H918.773L942.517 297.824L966.163 230.062H997.821L956.424 338.708H928.642Z" fill="#F2EDD9"/>
<path d="M1048.43 312.125C1049.51 312.451 1050.58 312.679 1051.69 312.777C1052.77 312.874 1053.84 312.94 1054.95 312.94C1057.65 312.94 1060.26 312.581 1062.77 311.832C1065.27 311.083 1067.62 310.04 1069.83 308.639C1072.02 307.239 1074 305.577 1075.73 303.557C1077.45 301.57 1078.86 299.355 1079.93 296.911L1100.22 317.305C1097.65 320.954 1094.68 324.244 1091.36 327.143C1088.01 330.043 1084.39 332.519 1080.52 334.538C1076.64 336.558 1072.54 338.122 1068.24 339.164C1063.94 340.207 1059.54 340.728 1055.01 340.728C1047.36 340.728 1040.19 339.295 1033.45 336.461C1026.71 333.626 1020.85 329.652 1015.8 324.602C1010.75 319.52 1006.78 313.493 1003.88 306.489C1000.98 299.485 999.514 291.797 999.514 283.424C999.514 275.052 1000.98 267.005 1003.88 259.871C1006.78 252.769 1010.75 246.71 1015.8 241.725C1020.85 236.708 1026.71 232.832 1033.45 230.063C1040.19 227.293 1047.36 225.893 1055.01 225.893C1059.54 225.893 1063.97 226.446 1068.3 227.521C1072.63 228.597 1076.74 230.16 1080.61 232.18C1084.49 234.2 1088.14 236.708 1091.53 239.64C1094.91 242.572 1097.88 245.895 1100.45 249.544L1048.53 312.125H1048.43ZM1062.64 255.017C1061.37 254.561 1060.09 254.235 1058.82 254.105C1057.55 253.974 1056.28 253.909 1054.92 253.909C1051.14 253.909 1047.56 254.593 1044.2 255.994C1040.85 257.395 1037.95 259.35 1035.47 261.923C1033 264.497 1031.04 267.592 1029.64 271.208C1028.21 274.824 1027.52 278.896 1027.52 283.424C1027.52 284.434 1027.59 285.575 1027.69 286.878C1027.79 288.148 1027.95 289.451 1028.21 290.787C1028.44 292.123 1028.73 293.361 1029.06 294.598C1029.38 295.804 1029.84 296.879 1030.39 297.856L1062.64 255.049V255.017Z" fill="#F2EDD9"/>
<path d="M1141.94 338.708H1114.26V230.062H1120.97L1130.09 242.931C1134.55 238.858 1139.63 235.731 1145.3 233.548C1150.97 231.366 1156.86 230.258 1162.95 230.258H1187.41V257.851H1162.95C1160.05 257.851 1157.32 258.405 1154.74 259.48C1152.17 260.555 1149.96 262.054 1148.07 263.943C1146.18 265.833 1144.68 268.08 1143.6 270.654C1142.53 273.228 1141.98 275.964 1141.98 278.864V338.741L1141.94 338.708Z" fill="#F2EDD9"/>
<path d="M1254.73 338.708C1248.03 338.708 1241.74 337.438 1235.88 334.897C1229.98 332.356 1224.84 328.87 1220.41 324.439C1215.98 320.009 1212.49 314.861 1209.95 308.965C1207.41 303.068 1206.14 296.781 1206.14 290.103V257.851H1192.66V230.258H1206.14V186.832H1233.73V230.258H1275.71V257.851H1233.73V290.103C1233.73 293.002 1234.28 295.739 1235.36 298.247C1236.43 300.788 1237.93 303.003 1239.82 304.893C1241.71 306.782 1243.95 308.281 1246.53 309.421C1249.1 310.561 1251.84 311.082 1254.73 311.082H1275.74V338.676H1254.73V338.708Z" fill="#F2EDD9"/>
<path d="M1323.91 200.547C1323.91 203.12 1323.43 205.531 1322.45 207.746C1321.47 209.962 1320.14 211.916 1318.44 213.578C1316.75 215.239 1314.76 216.575 1312.51 217.52C1310.23 218.497 1307.82 218.986 1305.25 218.986C1302.68 218.986 1300.27 218.497 1297.99 217.52C1295.71 216.542 1293.75 215.239 1292.09 213.578C1290.43 211.916 1289.13 209.962 1288.12 207.746C1287.14 205.499 1286.65 203.12 1286.65 200.547C1286.65 197.973 1287.14 195.66 1288.12 193.412C1289.1 191.164 1290.43 189.177 1292.09 187.516C1293.75 185.854 1295.71 184.551 1297.99 183.574C1300.27 182.597 1302.68 182.108 1305.25 182.108C1307.82 182.108 1310.23 182.597 1312.51 183.574C1314.79 184.551 1316.75 185.887 1318.44 187.516C1320.14 189.177 1321.47 191.132 1322.45 193.412C1323.43 195.693 1323.91 198.071 1323.91 200.547ZM1319.16 338.708H1291.28V230.062H1319.16V338.708Z" fill="#F2EDD9"/>
<path d="M1399.9 338.708H1336.62V311.114H1399.9C1401.79 311.114 1403.42 310.43 1404.75 309.095C1406.12 307.726 1406.77 306.097 1406.77 304.241C1406.77 302.384 1406.09 300.983 1404.75 300.396C1403.38 299.777 1401.79 299.484 1399.9 299.484H1371.11C1366.32 299.484 1361.83 298.572 1357.62 296.748C1353.42 294.923 1349.77 292.448 1346.68 289.288C1343.59 286.127 1341.11 282.479 1339.32 278.276C1337.53 274.074 1336.62 269.578 1336.62 264.789C1336.62 260 1337.53 255.505 1339.32 251.302C1341.11 247.1 1343.55 243.451 1346.68 240.356C1349.81 237.261 1353.45 234.785 1357.62 232.994C1361.83 231.202 1366.32 230.322 1371.11 230.322H1427.19V257.915H1371.11C1369.22 257.915 1367.59 258.6 1366.25 259.935C1364.92 261.271 1364.24 262.9 1364.24 264.789C1364.24 266.679 1364.92 268.438 1366.25 269.806C1367.59 271.174 1369.22 271.891 1371.11 271.891H1399.9C1404.62 271.891 1409.08 272.673 1413.29 274.269C1417.49 275.866 1421.14 278.081 1424.23 280.915C1427.32 283.749 1429.8 287.17 1431.62 291.177C1433.45 295.184 1434.36 299.517 1434.36 304.273C1434.36 309.029 1433.45 313.558 1431.62 317.728C1429.8 321.898 1427.32 325.546 1424.23 328.674C1421.14 331.801 1417.46 334.277 1413.29 336.069C1409.08 337.861 1404.62 338.773 1399.9 338.773V338.708Z" fill="#F2EDD9"/>
<path d="M1481.75 200.547C1481.75 203.12 1481.26 205.531 1480.28 207.746C1479.31 209.962 1477.97 211.916 1476.28 213.578C1474.58 215.239 1472.6 216.575 1470.35 217.52C1468.07 218.497 1465.66 218.986 1463.09 218.986C1460.51 218.986 1458.1 218.497 1455.82 217.52C1453.54 216.542 1451.59 215.239 1449.93 213.578C1448.27 211.916 1446.96 209.962 1445.95 207.746C1444.98 205.499 1444.49 203.12 1444.49 200.547C1444.49 197.973 1444.98 195.66 1445.95 193.412C1446.93 191.164 1448.27 189.177 1449.93 187.516C1451.59 185.854 1453.54 184.551 1455.82 183.574C1458.1 182.597 1460.51 182.108 1463.09 182.108C1465.66 182.108 1468.07 182.597 1470.35 183.574C1472.63 184.551 1474.58 185.887 1476.28 187.516C1477.97 189.177 1479.31 191.132 1480.28 193.412C1481.26 195.693 1481.75 198.071 1481.75 200.547ZM1476.96 338.708H1449.08V230.062H1476.96V338.708Z" fill="#F2EDD9"/>
<path d="M1525.78 338.708H1498.1V230.062H1504.81L1513.93 240.617C1518.39 236.545 1523.44 233.417 1529.11 231.235C1534.77 229.052 1540.67 227.944 1546.79 227.944C1553.44 227.944 1559.66 229.215 1565.55 231.756C1571.45 234.297 1576.56 237.783 1580.96 242.213C1585.35 246.644 1588.81 251.824 1591.35 257.72C1593.89 263.649 1595.16 269.937 1595.16 276.648V338.74H1567.47V276.648C1567.47 273.813 1566.92 271.109 1565.85 268.568C1564.77 266.027 1563.27 263.812 1561.38 261.923C1559.49 260.033 1557.28 258.535 1554.8 257.46C1552.3 256.384 1549.63 255.831 1546.79 255.831C1543.96 255.831 1541.16 256.384 1538.58 257.46C1536.01 258.535 1533.8 260.033 1531.91 261.923C1530.02 263.812 1528.52 266.027 1527.44 268.568C1526.37 271.109 1525.82 273.781 1525.82 276.648V338.74L1525.78 338.708Z" fill="#F2EDD9"/>
<path d="M1720 325.025C1720 332.648 1718.53 339.848 1715.64 346.526C1712.74 353.205 1708.76 359.069 1703.71 364.086C1698.67 369.103 1692.8 373.044 1686.06 375.944C1679.32 378.843 1672.15 380.309 1664.5 380.309L1650.59 380.114V352.423L1664.27 352.618C1668.6 352.618 1672.28 352.064 1675.35 350.957C1678.38 349.849 1680.95 348.318 1683.07 346.396C1685.15 344.474 1686.84 342.259 1688.08 339.75C1689.32 337.242 1690.33 334.603 1691.08 331.834C1690 333.593 1688.44 335.026 1686.42 336.134C1684.4 337.242 1682.15 338.154 1679.68 338.871C1677.2 339.587 1674.63 340.076 1671.96 340.337C1669.29 340.597 1666.81 340.728 1664.5 340.728C1656.85 340.728 1649.68 339.392 1642.94 336.786C1636.2 334.147 1630.33 330.368 1625.29 325.481C1620.24 320.595 1616.26 314.568 1613.37 307.466C1610.47 300.364 1609 292.35 1609 283.424C1609 275.247 1610.47 267.624 1613.37 260.587C1616.26 253.55 1620.24 247.458 1625.29 242.311C1630.33 237.164 1636.2 233.157 1642.94 230.225C1649.68 227.325 1656.85 225.859 1664.5 225.859C1668.02 225.859 1671.5 226.283 1674.96 227.195C1678.41 228.075 1681.76 229.28 1684.99 230.844C1688.24 232.407 1691.34 234.232 1694.27 236.317C1697.2 238.402 1699.97 240.682 1702.54 243.125L1713.29 230.257H1720V325.025ZM1692.12 283.424C1692.12 279.645 1691.4 275.964 1689.94 272.413C1688.47 268.862 1686.52 265.734 1684.01 262.965C1681.5 260.229 1678.57 258.013 1675.25 256.384C1671.89 254.723 1668.34 253.909 1664.53 253.909C1660.72 253.909 1657.17 254.56 1653.82 255.831C1650.46 257.101 1647.56 259.023 1645.09 261.499C1642.61 264.008 1640.66 267.102 1639.26 270.784C1637.83 274.465 1637.14 278.667 1637.14 283.424C1637.14 288.18 1637.86 292.024 1639.26 295.64C1640.66 299.256 1642.61 302.351 1645.09 304.925C1647.56 307.499 1650.46 309.486 1653.82 310.854C1657.17 312.255 1660.72 312.939 1664.53 312.939C1668.34 312.939 1671.89 312.125 1675.25 310.463C1678.6 308.802 1681.53 306.619 1684.01 303.882C1686.52 301.146 1688.47 297.986 1689.94 294.435C1691.4 290.884 1692.12 287.203 1692.12 283.424Z" fill="#F2EDD9"/>
<path d="M750.417 530.068H721.3V500.944H663.064V530.068H634.044V442.825C634.044 434.779 635.575 427.221 638.604 420.151C641.633 413.082 645.802 406.925 651.046 401.647C656.29 396.37 662.445 392.2 669.513 389.17C676.581 386.141 684.137 384.609 692.182 384.609C700.227 384.609 707.783 386.141 714.851 389.17C721.919 392.233 728.074 396.37 733.351 401.647C738.627 406.925 742.796 413.082 745.825 420.151C748.887 427.221 750.385 434.779 750.385 442.825V530.068H750.417ZM721.3 471.917V442.793C721.3 438.786 720.551 435.039 719.02 431.488C717.489 427.937 715.405 424.843 712.799 422.204C710.193 419.565 707.067 417.48 703.516 415.949C699.966 414.418 696.188 413.668 692.215 413.668C688.241 413.668 684.463 414.418 680.913 415.949C677.362 417.48 674.268 419.565 671.63 422.204C668.992 424.843 666.907 427.937 665.409 431.488C663.878 435.039 663.129 438.818 663.129 442.793V471.917H721.365H721.3Z" fill="#F2EDD9"/>
<path d="M827.218 530.068C820.509 530.068 814.223 528.797 808.36 526.256C802.465 523.715 797.319 520.229 792.889 515.799C788.459 511.368 784.974 506.221 782.434 500.324C779.894 494.428 778.623 488.14 778.623 481.462V449.21H765.139V421.617H778.623V378.191H806.21V421.617H848.193V449.21H806.21V481.462C806.21 484.361 806.764 487.098 807.839 489.639C808.914 492.18 810.412 494.395 812.301 496.285C814.19 498.174 816.437 499.673 819.01 500.813C821.583 501.921 824.319 502.474 827.218 502.474H848.226V530.068H827.218Z" fill="#F2EDD9"/>
<path d="M918.187 530.068C911.477 530.068 905.191 528.797 899.328 526.256C893.433 523.715 888.287 520.229 883.858 515.799C879.428 511.368 875.943 506.221 873.403 500.324C870.862 494.428 869.592 488.14 869.592 481.462V449.21H856.108V421.617H869.592V378.191H897.179V421.617H939.162V449.21H897.179V481.462C897.179 484.361 897.733 487.098 898.807 489.639C899.882 492.18 901.38 494.395 903.269 496.285C905.159 498.174 907.406 499.673 909.979 500.813C912.552 501.921 915.288 502.474 918.187 502.474H939.194V530.068H918.187Z" fill="#F2EDD9"/>
<path d="M987.366 391.875C987.366 394.448 986.877 396.859 985.9 399.074C984.923 401.29 983.588 403.244 981.894 404.906C980.2 406.567 978.214 407.87 975.966 408.848C973.686 409.825 971.276 410.314 968.703 410.314C966.13 410.314 963.72 409.825 961.44 408.848C959.16 407.87 957.206 406.535 955.545 404.906C953.884 403.244 952.581 401.29 951.571 399.074C950.594 396.827 950.105 394.448 950.105 391.875C950.105 389.301 950.594 386.988 951.571 384.708C952.548 382.427 953.884 380.473 955.545 378.811C957.206 377.15 959.16 375.847 961.44 374.869C963.72 373.892 966.13 373.403 968.703 373.403C971.276 373.403 973.686 373.892 975.966 374.869C978.246 375.847 980.2 377.182 981.894 378.811C983.588 380.473 984.923 382.427 985.9 384.708C986.877 386.988 987.366 389.366 987.366 391.875ZM982.611 530.068H954.73V421.423H982.611V530.068Z" fill="#F2EDD9"/>
<path d="M1058.17 530.068C1051.46 530.068 1045.18 528.797 1039.32 526.256C1033.42 523.715 1028.27 520.229 1023.84 515.799C1019.41 511.368 1015.93 506.221 1013.39 500.324C1010.85 494.428 1009.58 488.14 1009.58 481.462V449.21H996.094V421.617H1009.58V378.191H1037.17V421.617H1079.15V449.21H1037.17V481.462C1037.17 484.361 1037.72 487.098 1038.79 489.639C1039.87 492.18 1041.37 494.395 1043.26 496.285C1045.15 498.174 1047.39 499.673 1049.97 500.813C1052.54 501.921 1055.27 502.474 1058.17 502.474H1079.18V530.068H1058.17Z" fill="#F2EDD9"/>
<path d="M1174.51 517.395C1172.3 519.415 1169.89 521.337 1167.38 523.129C1164.84 524.921 1162.2 526.484 1159.43 527.787C1156.67 529.123 1153.8 530.165 1150.87 530.947C1147.94 531.729 1144.94 532.12 1141.88 532.12C1135.17 532.12 1128.88 530.947 1123.02 528.569C1117.13 526.191 1111.98 522.836 1107.55 518.47C1103.12 514.105 1099.64 508.795 1097.09 502.54C1094.55 496.285 1093.28 489.281 1093.28 481.495V421.422H1120.87V481.495C1120.87 485.143 1121.42 488.401 1122.53 491.268C1123.64 494.135 1125.14 496.578 1127.03 498.533C1128.92 500.487 1131.13 501.986 1133.67 502.996C1136.21 504.006 1138.91 504.527 1141.85 504.527C1144.78 504.527 1147.38 503.875 1149.92 502.54C1152.46 501.204 1154.68 499.478 1156.57 497.327C1158.46 495.177 1159.96 492.701 1161.03 489.965C1162.1 487.228 1162.66 484.394 1162.66 481.495V421.422H1190.34V530.068H1183.67L1174.55 517.395H1174.51Z" fill="#F2EDD9"/>
<path d="M1316.39 530.068H1309.71L1298.96 515.147C1296.33 517.526 1293.53 519.741 1290.59 521.793C1287.66 523.846 1284.57 525.637 1281.31 527.168C1278.05 528.7 1274.73 529.905 1271.31 530.785C1267.89 531.664 1264.44 532.12 1260.92 532.12C1253.27 532.12 1246.1 530.687 1239.36 527.82C1232.62 524.953 1226.76 520.946 1221.71 515.864C1216.66 510.749 1212.69 504.69 1209.79 497.718C1206.89 490.714 1205.42 483.091 1205.42 474.849C1205.42 466.607 1206.89 459.049 1209.79 452.012C1212.69 444.975 1216.66 438.884 1221.71 433.736C1226.76 428.589 1232.62 424.582 1239.36 421.65C1246.1 418.751 1253.27 417.285 1260.92 417.285C1263.37 417.285 1265.87 417.48 1268.48 417.904C1271.08 418.295 1273.63 418.979 1276.1 419.891C1278.58 420.803 1280.89 422.008 1283.04 423.507C1285.19 425.006 1287.04 426.83 1288.51 428.98V378.257H1316.39V530.133V530.068ZM1288.51 474.784C1288.51 471.005 1287.79 467.324 1286.33 463.773C1284.86 460.222 1282.91 457.062 1280.4 454.325C1277.89 451.589 1274.96 449.373 1271.64 447.745C1268.28 446.083 1264.73 445.269 1260.92 445.269C1257.11 445.269 1253.56 445.953 1250.21 447.288C1246.85 448.657 1243.95 450.579 1241.48 453.12C1239 455.661 1237.08 458.756 1235.65 462.404C1234.25 466.053 1233.53 470.19 1233.53 474.784C1233.53 478.791 1234.25 482.57 1235.65 486.153C1237.08 489.737 1239 492.897 1241.48 495.601C1243.95 498.305 1246.85 500.422 1250.21 501.986C1253.56 503.55 1257.11 504.332 1260.92 504.332C1264.73 504.332 1268.28 503.517 1271.64 501.856C1274.99 500.194 1277.92 498.012 1280.4 495.275C1282.91 492.539 1284.86 489.379 1286.33 485.828C1287.79 482.277 1288.51 478.595 1288.51 474.816V474.784Z" fill="#F2EDD9"/>
<path d="M1380.72 503.485C1381.79 503.811 1382.87 504.039 1383.97 504.136C1385.05 504.234 1386.12 504.299 1387.23 504.299C1389.93 504.299 1392.54 503.941 1395.05 503.192C1397.55 502.442 1399.9 501.4 1402.11 499.999C1404.3 498.631 1406.28 496.937 1408.01 494.917C1409.74 492.93 1411.14 490.714 1412.21 488.271L1432.5 508.665C1429.93 512.313 1426.97 515.604 1423.64 518.503C1420.29 521.402 1416.67 523.878 1412.8 525.898C1408.92 527.918 1404.82 529.482 1400.52 530.524C1396.22 531.567 1391.82 532.088 1387.3 532.088C1379.64 532.088 1372.48 530.654 1365.73 527.82C1358.99 524.986 1353.13 521.012 1348.08 515.962C1343.03 510.88 1339.06 504.853 1336.16 497.849C1333.26 490.845 1331.8 483.156 1331.8 474.751C1331.8 466.347 1333.26 458.332 1336.16 451.198C1339.06 444.096 1343.03 438.037 1348.08 433.052C1353.13 428.068 1358.99 424.159 1365.73 421.39C1372.48 418.621 1379.64 417.22 1387.3 417.22C1391.82 417.22 1396.25 417.774 1400.58 418.849C1404.92 419.924 1409.02 421.487 1412.9 423.507C1416.77 425.527 1420.42 428.035 1423.81 430.967C1427.19 433.899 1430.16 437.222 1432.73 440.871L1380.81 503.452L1380.72 503.485ZM1394.92 446.377C1393.65 445.92 1392.38 445.595 1391.11 445.464C1389.84 445.334 1388.57 445.269 1387.2 445.269C1383.42 445.269 1379.84 445.953 1376.48 447.354C1373.13 448.755 1370.23 450.709 1367.75 453.283C1365.28 455.857 1363.32 458.951 1361.92 462.568C1360.49 466.184 1359.81 470.256 1359.81 474.784C1359.81 475.794 1359.87 476.934 1359.97 478.237C1360.07 479.508 1360.23 480.811 1360.49 482.147C1360.72 483.482 1361.01 484.72 1361.34 485.958C1361.66 487.164 1362.12 488.271 1362.67 489.216L1394.92 446.409V446.377Z" fill="#F2EDD9"/>
</g>
<defs>
<clipPath id="clip0_2355_393">
<rect width="1720" height="533" fill="white"/>
</clipPath>
</defs>
</svg>
