<svg width="366" height="374" viewBox="0 0 366 374" fill="none" xmlns="http://www.w3.org/2000/svg">
<g clip-path="url(#clip0_3539_216)">
<path d="M157.224 90.5575C161.227 87.2347 218.116 41.432 276.383 62.5806C319.795 78.3386 337.324 121.583 350.099 153.104C355.2 165.684 368.086 201.022 364.781 247.71C362.392 281.448 356.308 314.82 331.235 344.196C305.329 374.549 257.9 383.526 224.036 359.853C204.224 345.999 192.615 320.167 198.275 296.686C208.381 254.759 280.285 242.031 286.991 292.931C289.857 314.695 264.086 350.053 243.96 323.389C238.579 316.258 239.711 307.924 240.01 306.049C246.445 322.87 273.18 320.994 271.195 300.952C270.511 294.032 265.348 287.973 258.888 285.362C252.428 282.751 244.943 283.337 238.545 286.088C227.004 291.046 218.954 303.197 218.902 315.743C218.834 331.544 230.52 343.561 244.755 348.62C296.846 367.124 330.595 295.999 318.171 255.029C312.015 234.736 296.928 217.54 278.084 207.937C268.98 203.297 260.718 199.743 251.378 203.831C239.557 209 230.944 218.17 218.073 221.887C204.262 225.874 189.147 225.633 175.644 220.555C180.943 214.477 186.237 208.399 191.536 202.326C187.364 206.846 181.69 210.318 175.659 211.688C172.032 212.515 158.732 208.865 157.089 209.875C143.269 218.363 130.875 222.604 122.344 224.854C106.019 229.158 98.3017 227.619 93.7495 226.109C89.2793 224.628 85.8881 222.532 83.6482 220.911C91.105 215.189 99.0001 209.385 107.338 203.566C115.412 197.935 123.321 192.689 131.029 187.799C134.887 185.875 119.034 195.012 117.464 196.647C102.651 212.054 43.7437 213.458 35.2416 195.339C33.7579 192.179 32.9679 186.635 28.3532 184.534C25.2992 183.144 22.8473 184.303 18.5119 184.534C14.6005 184.745 8.93081 184.211 1.78711 180.605C18.2229 175.37 42.8782 167.519 75.753 157.052C51.0993 164.904 26.4456 172.752 1.78711 180.605C3.69948 176.075 6.556 168.583 8.6755 158.995C11.797 144.867 11.5898 134.018 11.6284 131.494C11.821 119.049 21.3444 96.6308 64.7605 52.9199C68.5467 45.2789 82.7618 18.9706 113.957 6.75657C129.463 0.68321 143.5 0.312941 152.335 0.861131C150.008 14.6957 148.399 32.8533 150.364 53.9009C151.684 67.9903 154.319 80.3198 157.224 90.5575Z" fill="#F1ECD8"/>
<path d="M1.78711 180.605C8.93081 184.211 14.6005 184.745 18.5119 184.534C22.8473 184.303 25.2992 183.144 28.3532 184.534C32.9679 186.635 33.7579 192.179 35.2416 195.339C43.7437 213.458 102.651 212.054 117.464 196.647C119.034 195.012 134.887 185.875 131.029 187.799C123.321 192.689 115.412 197.935 107.338 203.566C99.0001 209.385 91.105 215.189 83.6482 220.911C85.8881 222.532 89.2793 224.628 93.7495 226.109C98.3017 227.619 106.019 229.158 122.344 224.854C130.875 222.604 143.269 218.363 157.089 209.875C158.732 208.865 172.032 212.515 175.659 211.688C181.69 210.318 187.364 206.846 191.536 202.326C186.237 208.399 180.943 214.477 175.644 220.555C189.147 225.633 204.262 225.874 218.073 221.887C230.944 218.17 239.557 209 251.378 203.831C260.718 199.743 268.98 203.297 278.084 207.937C296.928 217.54 312.015 234.736 318.171 255.029C330.595 295.999 296.846 367.124 244.755 348.62C230.52 343.561 218.834 331.545 218.902 315.743C218.955 303.197 227.004 291.046 238.545 286.088C244.943 283.337 252.428 282.751 258.888 285.362C265.348 287.973 270.511 294.032 271.195 300.952C273.18 320.994 246.445 322.87 240.01 306.049C239.711 307.924 238.579 316.258 243.96 323.389C264.086 350.053 289.857 314.695 286.991 292.931C280.285 242.031 208.381 254.759 198.275 296.686C192.615 320.167 204.224 345.999 224.036 359.853C257.9 383.526 305.329 374.549 331.235 344.196C356.308 314.82 362.392 281.448 364.781 247.71C368.086 201.022 355.2 165.683 350.099 153.104C337.324 121.583 319.795 78.3386 276.383 62.5806C218.116 41.432 161.227 87.2347 157.224 90.5575C154.319 80.3198 151.684 67.9903 150.364 53.9009C148.399 32.8533 150.008 14.6957 152.335 0.861131C143.5 0.312941 129.463 0.68321 113.957 6.75657C82.7618 18.9706 68.5467 45.2789 64.7605 52.9199C21.3444 96.6308 11.821 119.049 11.6284 131.494C11.5898 134.018 11.797 144.867 8.6755 158.995C6.556 168.583 3.69948 176.075 1.78711 180.605ZM1.78711 180.605C18.2229 175.37 42.8782 167.519 75.753 157.052C51.0993 164.904 26.4456 172.752 1.78711 180.605Z" stroke="#E1584B" stroke-width="2.83" stroke-miterlimit="10"/>
<mask id="path-3-inside-1_3539_216" fill="white">
<path d="M142 128.268C150.281 116.318 154.038 102.445 151.841 88C152.887 91.4286 153.416 95.0303 153.465 98.6464C153.624 109.485 149.365 120.334 142 128.268Z"/>
</mask>
<path d="M142 128.268C150.281 116.318 154.038 102.445 151.841 88C152.887 91.4286 153.416 95.0303 153.465 98.6464C153.624 109.485 149.365 120.334 142 128.268Z" fill="#E1584B"/>
<path d="M142 128.268L139.534 126.559L144.199 130.309L142 128.268ZM151.841 88L154.711 87.1251L148.875 88.451L151.841 88ZM153.465 98.6464L150.465 98.6864L150.465 98.6904L153.465 98.6464ZM142 128.268L144.466 129.977C153.136 117.465 157.131 102.829 154.807 87.549L151.841 88L148.875 88.451C150.945 102.062 147.425 115.172 139.534 126.559L142 128.268ZM151.841 88L148.972 88.8749C149.929 92.0151 150.42 95.3343 150.465 98.6864L153.465 98.6464L156.464 98.6065C156.413 94.7263 155.844 90.8421 154.711 87.1251L151.841 88ZM153.465 98.6464L150.465 98.6904C150.612 108.741 146.652 118.847 139.801 126.227L142 128.268L144.199 130.309C152.078 121.821 156.635 110.23 156.464 98.6024L153.465 98.6464Z" fill="#E1584B" mask="url(#path-3-inside-1_3539_216)"/>
<mask id="path-5-inside-2_3539_216" fill="white">
<path d="M227.572 136.23C196.82 140.577 177.036 171.536 194.826 199.311C196.979 202.787 199.546 206.024 202.485 208.909C196.232 203.485 191.338 196.43 188.708 188.558C180.129 162.577 201.666 137.981 227.577 136.226L227.572 136.23Z"/>
</mask>
<path d="M227.572 136.23C196.82 140.577 177.036 171.536 194.826 199.311C196.979 202.787 199.546 206.024 202.485 208.909C196.232 203.485 191.338 196.43 188.708 188.558C180.129 162.577 201.666 137.981 227.577 136.226L227.572 136.23Z" fill="#E1584B"/>
<path d="M227.572 136.23L227.992 139.201L228.981 139.061L229.688 138.357L227.572 136.23ZM194.826 199.311L197.376 197.731L197.364 197.712L197.352 197.693L194.826 199.311ZM202.485 208.909L200.519 211.175L204.587 206.768L202.485 208.909ZM188.708 188.558L185.859 189.499L185.863 189.509L188.708 188.558ZM227.577 136.226L229.693 138.352L235.382 132.69L227.374 133.232L227.577 136.226ZM227.572 136.23L227.152 133.26C210.898 135.558 197.425 144.905 190.377 157.522C183.285 170.218 182.793 186.087 192.299 200.929L194.826 199.311L197.352 197.693C189.069 184.76 189.575 171.262 195.615 160.448C201.7 149.555 213.494 141.25 227.992 139.201L227.572 136.23ZM194.826 199.311L192.275 200.89C194.551 204.565 197.268 207.991 200.383 211.049L202.485 208.909L204.587 206.768C201.825 204.056 199.407 201.009 197.376 197.731L194.826 199.311ZM202.485 208.909L204.451 206.643C198.576 201.546 194.002 194.937 191.553 187.608L188.708 188.558L185.863 189.509C188.674 197.924 193.889 205.423 200.519 211.175L202.485 208.909ZM188.708 188.558L191.557 187.618C183.738 163.94 203.332 140.875 227.78 139.219L227.577 136.226L227.374 133.232C200 135.087 176.52 161.215 185.859 189.499L188.708 188.558ZM227.577 136.226L225.461 134.099L225.456 134.104L227.572 136.23L229.688 138.357L229.693 138.352L227.577 136.226Z" fill="#E1584B" mask="url(#path-5-inside-2_3539_216)"/>
<path d="M110.975 127.391C128.363 127.391 142.459 113.32 142.459 95.9618C142.459 78.6037 128.363 64.5322 110.975 64.5322C93.5862 64.5322 79.4902 78.6037 79.4902 95.9618C79.4902 113.32 93.5862 127.391 110.975 127.391Z" fill="#E1584B" stroke="#E1584B" stroke-width="2.83" stroke-miterlimit="10"/>
<path d="M122.437 93.5292C124.505 92.5032 124.98 89.2596 123.499 86.2845C122.017 83.3094 119.14 81.7294 117.072 82.7554C115.004 83.7815 114.529 87.0251 116.01 90.0002C117.492 92.9753 120.369 94.5553 122.437 93.5292Z" fill="#F1ECD8" stroke="#F1ECD8" stroke-width="2.83" stroke-miterlimit="10"/>
<mask id="path-9-inside-3_3539_216" fill="white">
<path d="M130.162 174.781C123.751 189.154 112.209 201.316 98.1816 208.49C111.159 199.7 122.084 188.207 130.162 174.781Z"/>
</mask>
<path d="M130.162 174.781C123.751 189.154 112.209 201.316 98.1816 208.49C111.159 199.7 122.084 188.207 130.162 174.781Z" fill="#E1584B"/>
<path d="M130.162 174.781L132.902 176.003L127.592 173.235L130.162 174.781ZM98.1816 208.49L96.4992 206.006L99.5477 211.161L98.1816 208.49ZM130.162 174.781L127.422 173.559C121.29 187.305 110.234 198.956 96.8155 205.819L98.1816 208.49L99.5477 211.161C114.184 203.675 126.211 191.003 132.902 176.003L130.162 174.781ZM98.1816 208.49L99.8641 210.974C113.199 201.941 124.428 190.13 132.733 176.328L130.162 174.781L127.592 173.235C119.74 186.284 109.119 197.458 96.4992 206.006L98.1816 208.49Z" fill="#E1584B" mask="url(#path-9-inside-3_3539_216)"/>
</g>
<defs>
<clipPath id="clip0_3539_216">
<rect width="366" height="374" fill="white"/>
</clipPath>
</defs>
</svg>
