<svg width="349" height="373" viewBox="0 0 349 373" fill="none" xmlns="http://www.w3.org/2000/svg">
<g clip-path="url(#clip0_3539_311)">
<path d="M137.35 83.827C144.994 78.9848 201.511 44.364 256.287 67.7945C291.005 82.6447 307.432 113.292 322.253 140.946C330.719 156.738 349.91 193.636 348.198 244.152C347.248 272.174 341.817 309.998 314.121 342.588C287.8 373.554 239.625 382.714 205.225 358.562C185.099 344.428 173.306 318.074 179.056 294.118C189.322 251.344 262.364 238.358 269.176 290.287C272.087 312.491 245.908 348.564 225.464 321.361C219.998 314.085 221.148 305.583 221.451 303.67C227.989 320.831 255.147 318.917 253.131 298.47C252.436 291.41 247.19 285.229 240.628 282.565C234.066 279.901 226.462 280.499 219.964 283.305C208.239 288.363 200.063 300.761 200.009 313.56C199.94 329.681 211.812 341.941 226.271 347.102C279.187 365.98 313.47 293.417 300.85 251.618C294.596 230.915 279.271 213.372 260.128 203.575C250.88 198.841 242.488 195.215 233 199.385C220.991 204.659 212.242 214.015 199.167 217.807C185.138 221.874 169.783 221.629 156.067 216.448C161.45 210.247 166.827 204.046 172.21 197.85C167.972 202.461 162.208 206.003 156.082 207.402C152.397 208.245 138.887 204.522 137.218 205.552C123.179 214.211 110.589 218.538 101.923 220.834C85.3393 225.225 77.5002 223.655 72.8761 222.114C68.3351 220.603 64.8902 218.464 62.6148 216.811C70.1896 210.973 78.2098 205.052 86.6801 199.115C94.8812 193.371 102.916 188.018 110.745 183.029C107.584 185.143 102.818 188.303 96.9658 192.056C63.3831 213.588 53.0435 216.86 46.5746 218.415C42.0581 219.499 35.2221 220.755 26.5218 220.829C35.8827 197.776 45.2387 174.718 54.5996 151.666C36.6852 125.66 18.7708 99.6583 0.851562 73.6521C9.17017 62.4324 24.9364 44.3394 50.3913 30.7207C66.8133 21.9293 82.0901 17.774 93.3692 15.689C101.282 10.8911 118.814 1.70722 142.982 0.775102C166.974 -0.152112 185.05 7.53542 193.32 11.6809C181.522 18.922 162.242 33.1638 148.345 57.7767C143.061 67.1322 139.63 76.0855 137.355 83.827H137.35Z" fill="#F1ECD8" stroke="#E1584B" stroke-width="2.83" stroke-miterlimit="10"/>
<mask id="path-2-inside-1_3539_311" fill="white">
<path d="M127.354 124.914C135.765 112.723 139.582 98.5693 137.351 83.832C138.412 87.3299 138.951 91.0044 139 94.6937C139.161 105.752 134.835 116.819 127.354 124.914Z"/>
</mask>
<path d="M127.354 124.914C135.765 112.723 139.582 98.5693 137.351 83.832C138.412 87.3299 138.951 91.0044 139 94.6937C139.161 105.752 134.835 116.819 127.354 124.914Z" fill="#E1584B"/>
<path d="M127.354 124.914L124.884 123.21L129.557 126.95L127.354 124.914ZM137.351 83.832L140.221 82.9606L134.384 84.2811L137.351 83.832ZM139 94.6937L136 94.7335L136 94.7375L139 94.6937ZM127.354 124.914L129.823 126.618C138.622 113.864 142.674 98.9506 140.317 83.3829L137.351 83.832L134.384 84.2811C136.49 98.1881 132.908 111.581 124.884 123.21L127.354 124.914ZM137.351 83.832L134.48 84.7035C135.454 87.9139 135.954 91.3071 136 94.7335L139 94.6937L141.999 94.6539C141.947 90.7018 141.37 86.7459 140.221 82.9606L137.351 83.832ZM139 94.6937L136 94.7375C136.15 105.011 132.12 115.338 125.15 122.878L127.354 124.914L129.557 126.95C137.551 118.301 142.172 106.492 141.999 94.6499L139 94.6937Z" fill="#E1584B" mask="url(#path-2-inside-1_3539_311)"/>
<mask id="path-4-inside-2_3539_311" fill="white">
<path d="M208.811 130.423C177.572 134.858 157.476 166.442 175.547 194.778C177.734 198.325 180.342 201.627 183.327 204.571C176.975 199.037 172.004 191.84 169.332 183.809C160.617 157.302 182.495 132.209 208.816 130.418L208.811 130.423Z"/>
</mask>
<path d="M208.811 130.423C177.572 134.858 157.476 166.442 175.547 194.778C177.734 198.325 180.342 201.627 183.327 204.571C176.975 199.037 172.004 191.84 169.332 183.809C160.617 157.302 182.495 132.209 208.816 130.418L208.811 130.423Z" fill="#E1584B"/>
<path d="M208.811 130.423L209.233 133.393L210.229 133.252L210.939 132.538L208.811 130.423ZM175.547 194.778L178.1 193.204L178.088 193.184L178.076 193.165L175.547 194.778ZM183.327 204.571L181.356 206.832L185.433 202.434L183.327 204.571ZM169.332 183.809L166.482 184.746L166.486 184.756L169.332 183.809ZM208.816 130.418L210.943 132.533L216.561 126.884L208.613 127.425L208.816 130.418ZM208.811 130.423L208.39 127.453C191.888 129.795 178.215 139.326 171.066 152.179C163.874 165.11 163.374 181.271 173.017 196.391L175.547 194.778L178.076 193.165C169.648 179.949 170.161 166.15 176.31 155.096C182.501 143.965 194.496 135.485 209.233 133.393L208.811 130.423ZM175.547 194.778L172.993 196.353C175.303 200.098 178.06 203.59 181.221 206.707L183.327 204.571L185.433 202.434C182.625 199.665 180.165 196.553 178.1 193.204L175.547 194.778ZM183.327 204.571L185.298 202.309C179.324 197.104 174.67 190.351 172.179 182.862L169.332 183.809L166.486 184.756C169.337 193.328 174.627 200.97 181.356 206.832L183.327 204.571ZM169.332 183.809L172.182 182.872C164.219 158.652 184.178 135.101 209.02 133.411L208.816 130.418L208.613 127.425C180.812 129.316 157.015 155.953 166.482 184.746L169.332 183.809ZM208.816 130.418L206.689 128.303L206.684 128.308L208.811 130.423L210.939 132.538L210.943 132.533L208.816 130.418Z" fill="#E1584B" mask="url(#path-4-inside-2_3539_311)"/>
<path d="M90.3752 121.406C108.039 121.406 122.358 107.05 122.358 89.3413C122.358 71.6323 108.039 57.2764 90.3752 57.2764C72.7117 57.2764 58.3926 71.6323 58.3926 89.3413C58.3926 107.05 72.7117 121.406 90.3752 121.406Z" fill="#E1584B" stroke="#E1584B" stroke-width="2.83" stroke-miterlimit="10"/>
<path d="M102.009 86.8569C104.109 85.8102 104.592 82.501 103.087 79.4658C101.583 76.4305 98.6599 74.8186 96.5593 75.8654C94.4587 76.9121 93.9758 80.2213 95.4806 83.2565C96.9854 86.2918 99.9081 87.9037 102.009 86.8569Z" fill="#F1ECD8" stroke="#F1ECD8" stroke-width="2.83" stroke-miterlimit="10"/>
<mask id="path-8-inside-3_3539_311" fill="white">
<path d="M109.864 169.754C103.351 184.418 91.6262 196.825 77.377 204.144C90.5595 195.176 101.658 183.451 109.864 169.754Z"/>
</mask>
<path d="M109.864 169.754C103.351 184.418 91.6262 196.825 77.377 204.144C90.5595 195.176 101.658 183.451 109.864 169.754Z" fill="#E1584B"/>
<path d="M109.864 169.754L112.605 170.972L107.29 168.212L109.864 169.754ZM77.377 204.144L75.6895 201.664L78.7477 206.813L77.377 204.144ZM109.864 169.754L107.122 168.536C100.887 182.575 89.6458 194.469 76.0062 201.476L77.377 204.144L78.7477 206.813C93.6067 199.18 105.815 186.261 112.605 170.972L109.864 169.754ZM77.377 204.144L79.0644 206.625C92.6049 197.413 104.006 185.369 112.437 171.296L109.864 169.754L107.29 168.212C99.309 181.534 88.5142 192.939 75.6895 201.664L77.377 204.144Z" fill="#E1584B" mask="url(#path-8-inside-3_3539_311)"/>
</g>
<defs>
<clipPath id="clip0_3539_311">
<rect width="349" height="373" fill="white"/>
</clipPath>
</defs>
</svg>
