<svg width="1720" height="1080" viewBox="0 0 1720 1080" fill="none" xmlns="http://www.w3.org/2000/svg">
<g clip-path="url(#clip0_3562_364)">
<rect width="1720" height="1080" fill="#E3584B"/>
<g clip-path="url(#clip1_3562_364)">
<path d="M163.537 511.833C155.045 511.909 133.01 511.986 124.518 512.063C68.8388 512.063 23.0293 466.253 23.0293 410.574C23.0293 354.895 67.2895 309.085 124.518 309.085C180.197 309.085 226.006 354.895 226.006 410.574C226.025 450.817 226.064 494.427 226.083 534.671" stroke="#F2EDD9" stroke-opacity="0.5" stroke-width="46.0772" stroke-miterlimit="10"/>
<path d="M163.269 449.402C159.998 449.44 127.788 449.46 124.517 449.498C103.095 449.498 85.4785 431.595 85.4785 409.847C85.4785 388.1 102.502 370.197 124.517 370.197C145.939 370.197 163.555 388.1 163.555 409.847C163.555 425.57 163.575 433.125 163.575 448.848" fill="#F2EDD9" fill-opacity="0.5"/>
<path d="M299.589 447.355C299.646 438.863 299.895 416.829 299.933 408.336C300.756 352.676 347.254 307.536 402.914 308.378C455.992 309.162 503.733 354.149 502.872 411.358C502.05 467.018 455.552 512.158 399.892 511.317C359.648 510.743 316.038 510.112 275.795 509.538" stroke="#F2EDD9" stroke-opacity="0.5" stroke-width="46.0772" stroke-miterlimit="10"/>
<path d="M362.02 448.006C362.02 444.735 362.479 412.525 362.498 409.254C362.823 387.832 380.975 370.484 402.722 370.809C423.456 371.115 442.105 388.425 441.78 410.44C441.454 431.862 423.303 449.211 401.555 448.886C385.833 448.656 378.278 448.56 362.555 448.331" fill="#F2EDD9" fill-opacity="0.5"/>
<path d="M362.401 581.131C370.894 581.054 392.928 580.978 401.42 580.901C457.1 580.901 502.909 626.711 502.909 682.39C502.909 738.069 458.649 783.878 401.42 783.878C345.741 783.878 299.932 738.069 299.932 682.39C299.913 642.146 299.875 598.536 299.855 558.293" stroke="#F2EDD9" stroke-opacity="0.5" stroke-width="46.0772" stroke-miterlimit="10"/>
<path d="M362.669 643.561C365.94 643.523 398.15 643.504 401.421 643.466C422.843 643.466 440.459 661.369 440.459 683.116C440.459 704.864 423.436 722.767 401.421 722.767C379.998 722.767 362.382 704.864 362.382 683.116C362.382 667.394 362.363 659.839 362.363 644.116" fill="#F2EDD9" fill-opacity="0.5"/>
<path d="M226.351 645.608C226.294 654.1 226.045 676.135 226.007 684.627C225.184 740.287 178.686 785.427 123.026 784.586C69.9487 783.801 22.2074 738.814 23.0681 681.605C23.8906 625.945 70.3886 580.805 126.049 581.647C166.292 582.221 209.902 582.852 250.145 583.426" stroke="#F2EDD9" stroke-opacity="0.5" stroke-width="46.0772" stroke-miterlimit="10"/>
<path d="M163.919 644.958C163.919 648.228 163.46 680.438 163.44 683.709C163.115 705.132 144.964 722.48 123.216 722.155C102.482 721.849 83.8333 704.539 84.1585 682.523C84.4836 661.101 102.635 643.753 124.383 644.078C140.105 644.307 147.661 644.403 163.383 644.632" fill="#F2EDD9" fill-opacity="0.5"/>
<path d="M252.611 243.04C252.554 232.768 251.139 131.414 251.081 121.142C250.087 53.7575 192.954 -0.86953 124.536 0.163335C59.3126 1.11969 0.611424 55.5746 1.64429 124.853C2.65803 192.238 59.7716 246.846 128.189 245.832C177.652 245.124 201.427 244.799 250.871 244.092" fill="#F2EDD9" fill-opacity="0.5"/>
<path d="M276.809 244.589C276.866 234.318 278.281 132.963 278.339 122.692C279.333 55.3069 336.466 0.679787 404.884 1.71265C470.107 2.68813 528.808 57.1431 527.776 126.402C526.762 193.787 469.648 248.395 401.231 247.381C351.768 246.674 327.993 246.349 278.549 245.641" fill="#F2EDD9" fill-opacity="0.5"/>
<path d="M1445.17 699.164V742.487C1574.54 742.487 1679.97 638.129 1681.79 509.174H1638.47C1636.67 614.24 1550.65 699.164 1445.17 699.164Z" fill="#F2EDD9" fill-opacity="0.5"/>
<path d="M1445.17 742.487V699.164C1339.68 699.164 1253.67 614.24 1251.89 509.174H1208.56C1210.36 638.129 1315.81 742.487 1445.19 742.487H1445.17Z" fill="#F2EDD9" fill-opacity="0.5"/>
<path d="M1445.17 577.955C1406.51 577.955 1374.88 547.39 1373.12 509.174H1329.79C1331.57 571.28 1382.62 621.278 1445.17 621.278C1507.71 621.278 1558.74 571.28 1560.52 509.174H1517.2C1515.44 547.39 1483.8 577.955 1445.15 577.955H1445.17Z" fill="#F2EDD9" fill-opacity="0.5"/>
<path d="M1225.93 433.335H1445.17V433.699C1481.8 433.699 1512.11 461.165 1516.68 496.569H1560.22C1555.55 438.117 1507.18 391.81 1447.86 390.452V390.012H589.516V433.335H1136.42V434.024C1172.95 434.024 1203.19 461.318 1207.88 496.589H1251.45C1249.48 472.718 1240.22 450.894 1225.91 433.354L1225.93 433.335Z" fill="#F2EDD9" fill-opacity="0.5"/>
<path d="M1121.71 308.703C1086.84 304.342 1055.74 290.551 1049.98 247.458H1006.41C1008.38 271.329 1017.64 293.153 1031.95 310.692H812.712V310.329C776.083 310.329 745.748 282.862 741.195 247.458H697.662C702.329 305.91 750.702 352.217 810.015 353.575V354.015H1668.36V310.692H1164.98C1150.92 310.692 1136 310.482 1121.71 308.684V308.703Z" fill="#F2EDD9" fill-opacity="0.5"/>
<path d="M812.711 166.072C851.367 166.072 883.003 196.637 884.763 234.853H928.086C926.307 172.747 875.256 122.749 812.711 122.749C750.165 122.749 699.134 172.747 697.336 234.853H740.659C742.419 196.637 774.055 166.072 812.711 166.072Z" fill="#F2EDD9" fill-opacity="0.5"/>
<path d="M812.711 44.8635C918.197 44.8635 1004.21 129.788 1005.99 234.853H1049.31C1047.52 105.898 942.068 1.54053 812.692 1.54053C683.316 1.54053 577.868 105.898 576.07 234.853H619.393C621.191 129.788 707.206 44.8635 812.692 44.8635H812.711Z" fill="#F2EDD9" fill-opacity="0.5"/>
<path d="M1028.33 813.41C1028.37 809.317 1028.41 768.882 1028.45 764.789C1028.45 737.915 1005.99 715.785 978.697 715.785C952.684 715.785 928.947 737.15 928.947 764.789C928.947 791.662 951.402 813.793 978.697 813.793C998.417 813.793 1007.9 813.812 1027.64 813.831" fill="#F2EDD9" fill-opacity="0.5"/>
<path d="M805.787 812.55C805.825 808.456 805.863 768.022 805.902 763.928C805.902 737.055 783.446 714.925 756.152 714.925C730.139 714.925 706.402 736.29 706.402 763.928C706.402 790.802 728.858 812.932 756.152 812.932C775.872 812.932 785.359 812.951 805.098 812.97" fill="#F2EDD9" fill-opacity="0.5"/>
<path d="M594.414 714.332C594.375 718.425 594.337 758.86 594.299 762.953C594.299 789.827 616.754 811.957 644.048 811.957C670.061 811.957 693.798 790.592 693.798 762.953C693.798 736.079 671.343 713.949 644.048 713.949C624.328 713.949 614.841 713.93 595.102 713.911" fill="#E3584B"/>
<path d="M594.414 714.332C594.375 718.425 594.337 758.86 594.299 762.953C594.299 789.827 616.754 811.957 644.048 811.957C670.061 811.957 693.798 790.592 693.798 762.953C693.798 736.079 671.343 713.949 644.048 713.949C624.328 713.949 614.841 713.93 595.102 713.911" stroke="#F2EDD9" stroke-opacity="0.5" stroke-width="6.31195" stroke-miterlimit="10"/>
<path d="M691.867 695.874C691.905 691.781 691.943 651.346 691.982 647.253C691.982 620.38 669.526 598.25 642.232 598.25C616.219 598.25 592.482 619.615 592.482 647.253C592.482 674.127 614.938 696.257 642.232 696.257C661.952 696.257 671.439 696.276 691.178 696.295" fill="#F2EDD9" fill-opacity="0.5"/>
<path d="M914.41 696.352C914.448 692.259 914.486 651.824 914.525 647.731C914.525 620.858 892.069 598.728 864.775 598.728C838.762 598.728 815.025 620.093 815.025 647.731C815.025 674.605 837.481 696.735 864.775 696.735C884.495 696.735 893.982 696.754 913.721 696.773" fill="#F2EDD9" fill-opacity="0.5"/>
<path d="M1136.88 599.588C1136.92 603.681 1136.96 644.116 1136.99 648.209C1136.99 675.083 1114.54 697.213 1087.24 697.213C1061.23 697.213 1037.49 675.848 1037.49 648.209C1037.49 621.336 1059.95 599.206 1087.24 599.206C1106.96 599.206 1116.45 599.187 1136.19 599.167" fill="#F2EDD9" fill-opacity="0.5"/>
<path d="M1149.48 509.614H802.059" stroke="#F2EDD9" stroke-opacity="0.5" stroke-width="37.8143" stroke-miterlimit="10"/>
<path d="M763.783 525.413C763.802 522.429 763.841 492.992 763.86 490.009C763.86 470.442 747.506 454.317 727.633 454.317C708.678 454.317 691.406 469.887 691.406 490.009C691.406 509.576 707.76 525.7 727.633 525.7C741.998 525.7 748.902 525.7 763.267 525.719" fill="#F2EDD9" fill-opacity="0.5"/>
<path d="M664.496 525.145C664.515 522.162 664.554 492.725 664.573 489.741C664.573 470.174 648.219 454.05 628.346 454.05C609.391 454.05 592.119 469.619 592.119 489.741C592.119 509.308 608.473 525.432 628.346 525.432C642.71 525.432 649.615 525.432 663.98 525.451" fill="#F2EDD9" fill-opacity="0.5"/>
<path d="M1253.63 809.145C1253.67 805.052 1253.71 764.617 1253.75 760.524C1253.75 733.65 1231.29 711.52 1204 711.52C1177.98 711.52 1154.25 732.885 1154.25 760.524C1154.25 787.397 1176.7 809.527 1204 809.527C1223.72 809.527 1233.2 809.546 1252.94 809.566" fill="#F2EDD9" fill-opacity="0.5"/>
<path d="M593.82 712.61C593.782 728.868 593.743 745.126 593.705 761.384C594.298 788.583 616.734 810.522 643.608 810.541C670.405 810.56 693.549 788.775 693.51 761.384C693.491 734.377 670.96 711.998 643.608 712.228C627.005 712.362 610.403 712.476 593.82 712.61Z" fill="#E3584B" stroke="#F2EDD9" stroke-opacity="0.5" stroke-width="6.33108" stroke-miterlimit="10"/>
<path d="M815.962 713.471C815.924 729.729 815.886 745.987 815.848 762.245C816.441 789.444 838.877 811.383 865.75 811.402C892.547 811.421 915.691 789.635 915.653 762.245C915.634 735.238 893.102 712.859 865.75 713.089C849.148 713.223 832.546 713.337 815.962 713.471Z" fill="#E3584B" stroke="#F2EDD9" stroke-opacity="0.5" stroke-width="6.33108" stroke-miterlimit="10"/>
<path d="M1039.29 714.313C1039.25 730.571 1039.21 746.829 1039.18 763.087C1039.77 790.285 1062.2 812.224 1089.08 812.243C1115.88 812.263 1139.02 790.477 1138.98 763.087C1138.96 736.079 1116.43 713.7 1089.08 713.93C1072.48 714.064 1055.87 714.179 1039.29 714.313Z" fill="#E3584B" stroke="#F2EDD9" stroke-opacity="0.5" stroke-width="6.33108" stroke-miterlimit="10"/>
<path d="M804.2 600.353C804.239 616.611 804.277 632.869 804.315 649.127C803.722 676.326 781.286 698.265 754.413 698.284C727.615 698.303 704.472 676.517 704.51 649.127C704.529 622.12 727.061 599.741 754.413 599.971C771.015 600.104 787.617 600.219 804.2 600.353Z" fill="#E3584B" stroke="#F2EDD9" stroke-opacity="0.5" stroke-width="6.33108" stroke-miterlimit="10"/>
<path d="M1028.52 599.894C1028.56 616.152 1028.6 632.41 1028.64 648.668C1028.04 675.867 1005.61 697.806 978.735 697.825C951.938 697.844 928.794 676.058 928.832 648.668C928.851 621.661 951.383 599.282 978.735 599.512C995.337 599.645 1011.94 599.76 1028.52 599.894Z" fill="#E3584B" stroke="#F2EDD9" stroke-opacity="0.5" stroke-width="6.33108" stroke-miterlimit="10"/>
<path d="M1532.46 108.786C1487.06 160.793 1482.85 220.527 1483.15 243.785L1526.48 243.212C1526.25 224.926 1529.52 178.007 1565.1 137.266C1604.52 92.1264 1657.15 84.8772 1675.75 83.7678V40.4258C1654.53 41.363 1584.59 49.1286 1532.46 108.805V108.786Z" fill="#F2EDD9" fill-opacity="0.5"/>
<path d="M1620.6 183.726C1599.2 206.22 1597.48 232.768 1597.73 243.154L1641.03 242.102C1640.94 238.219 1641.45 224.658 1651.97 213.584C1660.14 204.995 1670.16 202.375 1675.73 201.591V158.077C1665.13 158.765 1640.61 162.705 1620.58 183.745L1620.6 183.726Z" fill="#F2EDD9" fill-opacity="0.5"/>
<path d="M1118.71 108.461C1082.6 68.1983 1078.67 21.3368 1078.67 3.05127H1035.35C1035.35 26.329 1040.36 86.0056 1086.46 137.4C1139.42 196.446 1209.6 203.217 1230.72 203.848V160.506C1212.7 159.76 1159.2 153.601 1118.71 108.461Z" fill="#F2EDD9" fill-opacity="0.5"/>
<path d="M1193.25 2.64956L1149.92 2.17139C1149.81 12.5383 1151.87 39.0676 1173.58 61.2933C1194.53 82.7348 1220.06 85.9099 1230.08 86.2734L1230.72 68.772V42.9313C1226.07 42.6253 1214.15 40.8273 1204.57 31.0151C1193.88 20.0744 1193.19 6.5515 1193.25 2.66869V2.64956Z" fill="#F2EDD9" fill-opacity="0.5"/>
<path d="M1250.11 41.7646V85.145C1268.7 86.2543 1321.32 93.4844 1360.76 138.644C1396.34 179.384 1399.63 226.303 1399.38 244.589L1442.7 245.163C1443.01 221.904 1438.82 162.17 1393.39 110.163C1341.29 50.4866 1271.32 42.721 1250.11 41.7838V41.7646Z" fill="#F2EDD9" fill-opacity="0.5"/>
<path d="M1250.11 159.416V202.93C1255.68 203.733 1265.68 206.334 1273.87 214.923C1284.41 225.997 1284.9 239.539 1284.81 243.441L1328.11 244.493C1328.36 234.126 1326.64 207.559 1305.24 185.065C1285.21 164.025 1260.69 160.085 1250.09 159.396L1250.11 159.416Z" fill="#F2EDD9" fill-opacity="0.5"/>
</g>
<g clip-path="url(#clip2_3562_364)">
<path d="M252.611 1090.04C252.554 1079.77 251.139 978.414 251.081 968.142C250.087 900.758 192.954 846.13 124.536 847.163C59.3126 848.12 0.611424 902.575 1.64429 971.853C2.65803 1039.24 59.7716 1093.85 128.189 1092.83C177.652 1092.12 201.427 1091.8 250.871 1091.09" fill="#F2EDD9" fill-opacity="0.5"/>
<path d="M276.809 1091.59C276.866 1081.32 278.281 979.963 278.339 969.692C279.333 902.307 336.466 847.68 404.884 848.713C470.107 849.688 528.808 904.143 527.776 973.402C526.762 1040.79 469.648 1095.4 401.231 1094.38C351.768 1093.67 327.993 1093.35 278.549 1092.64" fill="#F2EDD9" fill-opacity="0.5"/>
<path d="M812.711 1013.07C851.367 1013.07 883.003 1043.64 884.763 1081.85H928.086C926.307 1019.75 875.256 969.749 812.711 969.749C750.165 969.749 699.134 1019.75 697.336 1081.85H740.659C742.419 1043.64 774.055 1013.07 812.711 1013.07Z" fill="#F2EDD9" fill-opacity="0.5"/>
<path d="M812.711 891.863C918.197 891.863 1004.21 976.788 1005.99 1081.85H1049.31C1047.52 952.898 942.068 848.541 812.692 848.541C683.316 848.541 577.868 952.898 576.07 1081.85H619.393C621.191 976.788 707.206 891.863 812.692 891.863H812.711Z" fill="#F2EDD9" fill-opacity="0.5"/>
<path d="M1532.46 955.786C1487.06 1007.79 1482.85 1067.53 1483.15 1090.79L1526.48 1090.21C1526.25 1071.93 1529.52 1025.01 1565.1 984.266C1604.52 939.126 1657.15 931.877 1675.75 930.768V887.426C1654.53 888.363 1584.59 896.129 1532.46 955.805V955.786Z" fill="#F2EDD9" fill-opacity="0.5"/>
<path d="M1620.6 1030.73C1599.2 1053.22 1597.48 1079.77 1597.73 1090.15L1641.03 1089.1C1640.94 1085.22 1641.45 1071.66 1651.97 1060.58C1660.14 1052 1670.16 1049.38 1675.73 1048.59V1005.08C1665.13 1005.77 1640.61 1009.71 1620.58 1030.75L1620.6 1030.73Z" fill="#F2EDD9" fill-opacity="0.5"/>
<path d="M1118.71 955.461C1082.6 915.198 1078.67 868.337 1078.67 850.051H1035.35C1035.35 873.329 1040.36 933.006 1086.46 984.4C1139.42 1043.45 1209.6 1050.22 1230.72 1050.85V1007.51C1212.7 1006.76 1159.2 1000.6 1118.71 955.461Z" fill="#F2EDD9" fill-opacity="0.5"/>
<path d="M1193.25 849.65L1149.92 849.171C1149.81 859.538 1151.87 886.068 1173.58 908.293C1194.53 929.735 1220.06 932.91 1230.08 933.273L1230.72 915.772V889.931C1226.07 889.625 1214.15 887.827 1204.57 878.015C1193.88 867.074 1193.19 853.551 1193.25 849.669V849.65Z" fill="#F2EDD9" fill-opacity="0.5"/>
<path d="M1250.11 888.765V932.145C1268.7 933.254 1321.32 940.484 1360.76 985.644C1396.34 1026.38 1399.63 1073.3 1399.38 1091.59L1442.7 1092.16C1443.01 1068.9 1438.82 1009.17 1393.39 957.163C1341.29 897.487 1271.32 889.721 1250.11 888.784V888.765Z" fill="#F2EDD9" fill-opacity="0.5"/>
<path d="M1250.11 1006.42V1049.93C1255.68 1050.73 1265.68 1053.33 1273.87 1061.92C1284.41 1073 1284.9 1086.54 1284.81 1090.44L1328.11 1091.49C1328.36 1081.13 1326.64 1054.56 1305.24 1032.07C1285.21 1011.03 1260.69 1007.09 1250.09 1006.4L1250.11 1006.42Z" fill="#F2EDD9" fill-opacity="0.5"/>
</g>
<rect x="2.00391" width="1714.99" height="1079" fill="url(#paint0_linear_3562_364)"/>
</g>
<defs>
<linearGradient id="paint0_linear_3562_364" x1="1716.99" y1="543.565" x2="1.99766" y2="537.058" gradientUnits="userSpaceOnUse">
<stop stop-color="#E3584B" stop-opacity="0.83"/>
<stop offset="0.5" stop-color="#E3584B"/>
<stop offset="1" stop-color="#E3584B" stop-opacity="0.82"/>
</linearGradient>
<clipPath id="clip0_3562_364">
<rect width="1720" height="1080" fill="white"/>
</clipPath>
<clipPath id="clip1_3562_364">
<rect width="1920" height="817.838" fill="white" transform="translate(0 -2.41895)"/>
</clipPath>
<clipPath id="clip2_3562_364">
<rect width="1920" height="817.838" fill="white" transform="translate(0 844.581)"/>
</clipPath>
</defs>
</svg>
