<svg width="1094" height="339" viewBox="0 0 1094 339" fill="none" xmlns="http://www.w3.org/2000/svg">
<path d="M169.624 339H169.479C76.0283 339 0 262.958 0 169.49C0 126.33 17.7538 83.3151 48.7244 51.4685C81.0002 18.275 123.883 0 169.458 0C262.909 0 338.916 76.0424 338.916 169.49L339.02 338.399L276.333 338.441L276.229 169.51C276.229 110.603 228.334 62.6987 169.458 62.6987C140.953 62.6987 114.022 74.2398 93.6578 95.1877C73.9774 115.431 62.6871 142.533 62.6871 169.49C62.6871 228.334 110.5 276.198 169.313 276.281C175.176 276.218 185.596 276.177 196.016 276.115C206.292 276.053 216.546 276.011 222.264 275.949L222.844 338.648C217.064 338.71 206.706 338.751 196.327 338.814C185.928 338.876 175.528 338.917 169.748 338.979H169.603L169.624 339Z" fill="#F2EDD9"/>
<path d="M222.202 222.346C217.748 222.388 173.912 222.429 169.479 222.471C140.331 222.471 116.342 198.104 116.342 168.516C116.342 138.928 139.523 114.54 169.479 114.54C198.627 114.54 222.616 138.907 222.616 168.516C222.616 189.92 222.637 200.197 222.657 221.6" fill="#F2EDD9"/>
<path d="M477.3 215.426H458.78V196.902H421.74V215.426H403.282V159.938C403.282 154.82 404.255 150.013 406.182 145.517C408.108 141.02 410.76 137.084 414.095 133.748C417.431 130.391 421.346 127.76 425.841 125.812C430.337 123.885 435.143 122.911 440.26 122.911C445.377 122.911 450.183 123.885 454.678 125.812C459.174 127.76 463.089 130.391 466.445 133.748C469.801 137.104 472.453 141.041 474.379 145.517C476.327 150.013 477.28 154.82 477.28 159.938V215.426H477.3ZM458.78 178.461V159.938C458.78 157.389 458.304 155.006 457.33 152.748C456.356 150.489 455.031 148.521 453.373 146.843C451.716 145.164 449.727 143.838 447.469 142.864C445.211 141.891 442.808 141.414 440.281 141.414C437.753 141.414 435.35 141.891 433.092 142.864C430.834 143.838 428.866 145.164 427.188 146.843C425.51 148.521 424.184 150.489 423.231 152.748C422.258 155.006 421.781 157.41 421.781 159.938V178.461H458.822H458.78Z" fill="#F2EDD9"/>
<path d="M557.617 215.426H553.37L546.534 205.936C544.856 207.428 543.074 208.858 541.21 210.163C539.345 211.468 537.377 212.608 535.306 213.582C533.234 214.556 531.121 215.322 528.946 215.882C526.771 216.441 524.575 216.731 522.337 216.731C517.469 216.731 512.911 215.82 508.623 213.996C504.335 212.173 500.606 209.624 497.395 206.392C494.184 203.139 491.657 199.285 489.813 194.851C487.969 190.396 487.037 185.548 487.037 180.305C487.037 175.063 487.969 170.256 489.813 165.781C491.657 161.305 494.184 157.431 497.395 154.157C500.606 150.883 504.335 148.335 508.623 146.47C512.911 144.626 517.469 143.693 522.337 143.693C523.891 143.693 525.486 143.818 527.143 144.087C528.801 144.336 530.417 144.771 531.991 145.351C533.565 145.931 535.036 146.698 536.404 147.651C537.771 148.604 538.952 149.764 539.884 151.132V118.871H557.617V215.467V215.426ZM539.884 180.264C539.884 177.861 539.428 175.519 538.496 173.261C537.564 171.002 536.321 169.013 534.726 167.252C533.13 165.511 531.266 164.102 529.153 163.066C527.019 162.01 524.761 161.492 522.337 161.492C519.914 161.492 517.656 161.927 515.522 162.776C513.388 163.626 511.544 164.869 509.97 166.485C508.395 168.101 507.173 170.07 506.262 172.39C505.371 174.711 504.915 177.343 504.915 180.264C504.915 182.813 505.371 185.216 506.262 187.495C507.173 189.775 508.395 191.784 509.97 193.504C511.544 195.224 513.388 196.571 515.522 197.565C517.656 198.56 519.914 199.057 522.337 199.057C524.761 199.057 527.019 198.539 529.153 197.482C531.287 196.426 533.151 195.037 534.726 193.297C536.321 191.556 537.564 189.547 538.496 187.288C539.428 185.03 539.884 182.688 539.884 180.285V180.264Z" fill="#F2EDD9"/>
<path d="M590.659 215.426L564.329 146.325H584.382L599.484 189.422L614.524 146.325H634.66L608.33 215.426H590.659Z" fill="#F2EDD9"/>
<path d="M666.853 198.518C667.537 198.726 668.221 198.871 668.925 198.933C669.609 198.995 670.292 199.036 670.997 199.036C672.716 199.036 674.373 198.808 675.968 198.332C677.564 197.855 679.055 197.192 680.464 196.301C681.852 195.41 683.116 194.354 684.214 193.069C685.311 191.805 686.202 190.396 686.886 188.842L699.792 201.813C698.155 204.133 696.27 206.226 694.157 208.07C692.023 209.914 689.724 211.489 687.259 212.774C684.794 214.058 682.183 215.053 679.449 215.716C676.714 216.379 673.918 216.711 671.038 216.711C666.17 216.711 661.612 215.799 657.324 213.996C653.036 212.194 649.307 209.666 646.096 206.454C642.885 203.222 640.357 199.389 638.514 194.934C636.67 190.479 635.738 185.589 635.738 180.264C635.738 174.939 636.67 169.821 638.514 165.283C640.357 160.766 642.885 156.913 646.096 153.742C649.307 150.552 653.036 148.086 657.324 146.325C661.612 144.563 666.17 143.673 671.038 143.673C673.918 143.673 676.735 144.025 679.49 144.708C682.245 145.392 684.856 146.387 687.321 147.671C689.786 148.956 692.106 150.552 694.261 152.416C696.415 154.281 698.3 156.395 699.937 158.715L666.915 198.518H666.853ZM675.886 162.196C675.078 161.906 674.27 161.699 673.462 161.616C672.654 161.533 671.846 161.492 670.976 161.492C668.573 161.492 666.294 161.927 664.16 162.818C662.026 163.709 660.183 164.952 658.608 166.589C657.034 168.226 655.791 170.194 654.9 172.494C653.989 174.794 653.554 177.384 653.554 180.264C653.554 180.906 653.595 181.632 653.657 182.46C653.719 183.268 653.823 184.097 653.989 184.947C654.134 185.796 654.32 186.584 654.527 187.371C654.734 188.138 655.024 188.821 655.377 189.443L675.886 162.217V162.196Z" fill="#F2EDD9"/>
<path d="M726.329 215.426H708.721V146.325H712.988L718.789 154.509C721.627 151.919 724.859 149.93 728.463 148.542C732.068 147.153 735.817 146.449 739.691 146.449H755.249V163.999H739.691C737.848 163.999 736.107 164.351 734.471 165.035C732.834 165.719 731.426 166.672 730.224 167.873C729.023 169.075 728.07 170.505 727.386 172.142C726.702 173.779 726.35 175.519 726.35 177.363V215.447L726.329 215.426Z" fill="#F2EDD9"/>
<path d="M798.07 215.426C793.802 215.426 789.804 214.618 786.075 213.002C782.325 211.385 779.052 209.168 776.235 206.351C773.417 203.533 771.201 200.259 769.585 196.509C767.969 192.758 767.161 188.759 767.161 184.512V163.999H758.585V146.449H767.161V118.829H784.708V146.449H811.411V163.999H784.708V184.512C784.708 186.356 785.06 188.096 785.743 189.692C786.427 191.308 787.38 192.717 788.582 193.919C789.783 195.12 791.212 196.073 792.849 196.799C794.486 197.524 796.226 197.855 798.07 197.855H811.432V215.405H798.07V215.426Z" fill="#F2EDD9"/>
<path d="M842.071 127.552C842.071 129.189 841.76 130.723 841.138 132.131C840.517 133.54 839.668 134.784 838.59 135.84C837.513 136.897 836.25 137.747 834.82 138.347C833.37 138.969 831.837 139.28 830.2 139.28C828.564 139.28 827.031 138.969 825.581 138.347C824.13 137.726 822.887 136.897 821.831 135.84C820.774 134.784 819.946 133.54 819.304 132.131C818.682 130.702 818.371 129.189 818.371 127.552C818.371 125.915 818.682 124.444 819.304 123.015C819.925 121.585 820.774 120.321 821.831 119.264C822.887 118.208 824.13 117.379 825.581 116.757C827.031 116.136 828.564 115.825 830.2 115.825C831.837 115.825 833.37 116.136 834.82 116.757C836.27 117.379 837.513 118.228 838.59 119.264C839.668 120.321 840.517 121.564 841.138 123.015C841.76 124.465 842.071 125.978 842.071 127.552ZM839.046 215.426H821.313V146.325H839.046V215.426Z" fill="#F2EDD9"/>
<path d="M890.401 215.426H850.15V197.876H890.401C891.603 197.876 892.639 197.441 893.488 196.591C894.358 195.721 894.773 194.685 894.773 193.504C894.773 192.323 894.338 191.432 893.488 191.059C892.618 190.665 891.603 190.479 890.401 190.479H872.088C869.043 190.479 866.184 189.899 863.512 188.739C860.839 187.578 858.519 186.003 856.551 183.994C854.583 181.984 853.009 179.663 851.869 176.99C850.73 174.317 850.15 171.458 850.15 168.412C850.15 165.366 850.73 162.507 851.869 159.834C853.009 157.161 854.562 154.841 856.551 152.872C858.54 150.904 860.86 149.329 863.512 148.189C866.184 147.05 869.043 146.49 872.088 146.49H907.762V164.04H872.088C870.887 164.04 869.851 164.475 869.002 165.325C868.152 166.174 867.717 167.21 867.717 168.412C867.717 169.614 868.152 170.733 869.002 171.603C869.851 172.473 870.887 172.929 872.088 172.929H890.401C893.405 172.929 896.243 173.426 898.916 174.442C901.588 175.457 903.908 176.866 905.876 178.669C907.844 180.471 909.419 182.647 910.579 185.195C911.739 187.744 912.319 190.5 912.319 193.525C912.319 196.55 911.739 199.43 910.579 202.082C909.419 204.734 907.844 207.055 905.876 209.044C903.908 211.033 901.568 212.608 898.916 213.748C896.243 214.887 893.405 215.467 890.401 215.467V215.426Z" fill="#F2EDD9"/>
<path d="M942.461 127.552C942.461 129.189 942.15 130.723 941.529 132.131C940.907 133.54 940.058 134.784 938.981 135.84C937.904 136.897 936.64 137.747 935.211 138.347C933.76 138.969 932.227 139.28 930.591 139.28C928.954 139.28 927.421 138.969 925.971 138.347C924.521 137.726 923.278 136.897 922.222 135.84C921.165 134.784 920.336 133.54 919.694 132.131C919.073 130.702 918.762 129.189 918.762 127.552C918.762 125.915 919.073 124.444 919.694 123.015C920.316 121.585 921.165 120.321 922.222 119.264C923.278 118.208 924.521 117.379 925.971 116.757C927.421 116.136 928.954 115.825 930.591 115.825C932.227 115.825 933.76 116.136 935.211 116.757C936.661 117.379 937.904 118.228 938.981 119.264C940.058 120.321 940.907 121.564 941.529 123.015C942.15 124.465 942.461 125.978 942.461 127.552ZM939.416 215.426H921.683V146.325H939.416V215.426Z" fill="#F2EDD9"/>
<path d="M970.469 215.426H952.861V146.325H957.128L962.929 153.038C965.767 150.448 968.978 148.459 972.583 147.071C976.187 145.682 979.937 144.978 983.831 144.978C988.057 144.978 992.014 145.786 995.764 147.402C999.514 149.018 1002.77 151.235 1005.56 154.053C1008.36 156.871 1010.56 160.166 1012.17 163.916C1013.79 167.687 1014.59 171.686 1014.59 175.954V215.447H996.986V175.954C996.986 174.152 996.634 172.432 995.95 170.816C995.267 169.2 994.314 167.791 993.112 166.589C991.911 165.387 990.502 164.434 988.928 163.75C987.332 163.066 985.634 162.714 983.831 162.714C982.029 162.714 980.248 163.066 978.611 163.75C976.974 164.434 975.566 165.387 974.364 166.589C973.163 167.791 972.21 169.2 971.526 170.816C970.842 172.432 970.49 174.131 970.49 175.954V215.447L970.469 215.426Z" fill="#F2EDD9"/>
<path d="M1094 206.723C1094 211.572 1093.07 216.151 1091.22 220.399C1089.38 224.646 1086.85 228.376 1083.64 231.567C1080.43 234.758 1076.7 237.265 1072.41 239.109C1068.13 240.953 1063.57 241.885 1058.7 241.885L1049.85 241.761V224.149L1058.55 224.273C1061.31 224.273 1063.65 223.921 1065.6 223.217C1067.52 222.512 1069.16 221.538 1070.51 220.316C1071.83 219.093 1072.91 217.684 1073.7 216.089C1074.49 214.493 1075.13 212.815 1075.6 211.054C1074.92 212.173 1073.93 213.085 1072.64 213.789C1071.36 214.493 1069.93 215.074 1068.35 215.529C1066.78 215.985 1065.14 216.296 1063.44 216.462C1061.74 216.628 1060.17 216.711 1058.7 216.711C1053.83 216.711 1049.27 215.861 1044.99 214.203C1040.7 212.525 1036.97 210.122 1033.76 207.014C1030.55 203.906 1028.02 200.072 1026.18 195.555C1024.33 191.038 1023.4 185.941 1023.4 180.264C1023.4 175.063 1024.33 170.215 1026.18 165.739C1028.02 161.264 1030.55 157.389 1033.76 154.115C1036.97 150.842 1040.7 148.293 1044.99 146.428C1049.27 144.584 1053.83 143.652 1058.7 143.652C1060.94 143.652 1063.15 143.921 1065.35 144.501C1067.55 145.061 1069.68 145.827 1071.73 146.822C1073.8 147.817 1075.77 148.977 1077.63 150.303C1079.5 151.629 1081.26 153.079 1082.9 154.633L1089.73 146.449H1094V206.723ZM1076.27 180.264C1076.27 177.861 1075.81 175.519 1074.88 173.261C1073.95 171.002 1072.7 169.013 1071.11 167.252C1069.51 165.511 1067.65 164.102 1065.54 163.066C1063.4 162.01 1061.14 161.492 1058.72 161.492C1056.3 161.492 1054.04 161.906 1051.9 162.714C1049.77 163.522 1047.93 164.745 1046.35 166.319C1044.78 167.915 1043.54 169.883 1042.64 172.225C1041.73 174.566 1041.3 177.239 1041.3 180.264C1041.3 183.289 1041.75 185.734 1042.64 188.034C1043.54 190.334 1044.78 192.302 1046.35 193.939C1047.93 195.576 1049.77 196.84 1051.9 197.71C1054.04 198.601 1056.3 199.036 1058.72 199.036C1061.14 199.036 1063.4 198.518 1065.54 197.462C1067.67 196.405 1069.53 195.017 1071.11 193.276C1072.7 191.536 1073.95 189.526 1074.88 187.267C1075.81 185.009 1076.27 182.668 1076.27 180.264Z" fill="#F2EDD9"/>
<path d="M477.3 337.135H458.78V318.612H421.74V337.135H403.282V281.647C403.282 276.529 404.255 271.722 406.182 267.226C408.108 262.73 410.76 258.814 414.095 255.457C417.431 252.1 421.346 249.448 425.841 247.521C430.337 245.594 435.143 244.62 440.26 244.62C445.377 244.62 450.183 245.594 454.678 247.521C459.174 249.469 463.089 252.1 466.445 255.457C469.801 258.814 472.453 262.73 474.379 267.226C476.327 271.722 477.28 276.529 477.28 281.647V337.135H477.3ZM458.78 300.15V281.626C458.78 279.078 458.304 276.695 457.33 274.436C456.356 272.178 455.031 270.21 453.373 268.531C451.716 266.853 449.727 265.527 447.469 264.553C445.211 263.579 442.808 263.103 440.281 263.103C437.753 263.103 435.35 263.579 433.092 264.553C430.834 265.527 428.866 266.853 427.188 268.531C425.51 270.21 424.184 272.178 423.231 274.436C422.258 276.695 421.781 279.098 421.781 281.626V300.15H458.822H458.78Z" fill="#F2EDD9"/>
<path d="M526.149 337.135C521.882 337.135 517.883 336.327 514.155 334.711C510.405 333.095 507.132 330.878 504.314 328.06C501.497 325.242 499.28 321.968 497.664 318.218C496.049 314.467 495.241 310.469 495.241 306.221V285.708H486.664V268.158H495.241V240.539H512.787V268.158H539.49V285.708H512.787V306.221C512.787 308.065 513.139 309.806 513.823 311.422C514.507 313.038 515.46 314.447 516.661 315.649C517.863 316.85 519.292 317.803 520.929 318.529C522.565 319.233 524.305 319.585 526.149 319.585H539.511V337.135H526.149Z" fill="#F2EDD9"/>
<path d="M584.009 337.135C579.742 337.135 575.744 336.327 572.015 334.711C568.265 333.095 564.992 330.878 562.175 328.06C559.357 325.242 557.141 321.968 555.525 318.218C553.909 314.467 553.101 310.469 553.101 306.221V285.708H544.524V268.158H553.101V240.539H570.647V268.158H597.351V285.708H570.647V306.221C570.647 308.065 571 309.806 571.683 311.422C572.367 313.038 573.32 314.447 574.521 315.649C575.723 316.85 577.152 317.803 578.789 318.529C580.426 319.233 582.166 319.585 584.009 319.585H597.371V337.135H584.009Z" fill="#F2EDD9"/>
<path d="M628.01 249.241C628.01 250.878 627.7 252.411 627.078 253.82C626.457 255.229 625.607 256.472 624.53 257.529C623.453 258.586 622.189 259.414 620.76 260.036C619.31 260.658 617.777 260.968 616.14 260.968C614.504 260.968 612.971 260.658 611.52 260.036C610.07 259.414 608.827 258.565 607.771 257.529C606.714 256.472 605.886 255.229 605.243 253.82C604.622 252.39 604.311 250.878 604.311 249.241C604.311 247.604 604.622 246.133 605.243 244.683C605.865 243.232 606.714 241.989 607.771 240.932C608.827 239.876 610.07 239.047 611.52 238.425C612.971 237.803 614.504 237.493 616.14 237.493C617.777 237.493 619.31 237.803 620.76 238.425C622.21 239.047 623.453 239.896 624.53 240.932C625.607 241.989 626.457 243.232 627.078 244.683C627.7 246.133 628.01 247.646 628.01 249.241ZM624.986 337.135H607.253V268.034H624.986V337.135Z" fill="#F2EDD9"/>
<path d="M673.047 337.135C668.78 337.135 664.782 336.327 661.053 334.711C657.303 333.095 654.03 330.878 651.213 328.06C648.395 325.242 646.179 321.968 644.563 318.218C642.947 314.467 642.139 310.469 642.139 306.221V285.708H633.562V268.158H642.139V240.539H659.686V268.158H686.389V285.708H659.686V306.221C659.686 308.065 660.038 309.806 660.721 311.422C661.405 313.038 662.358 314.447 663.559 315.649C664.761 316.85 666.19 317.803 667.827 318.529C669.464 319.233 671.204 319.585 673.047 319.585H686.409V337.135H673.047Z" fill="#F2EDD9"/>
<path d="M747.046 329.075C745.637 330.36 744.104 331.582 742.509 332.722C740.893 333.861 739.215 334.856 737.454 335.685C735.693 336.534 733.87 337.197 732.006 337.695C730.141 338.192 728.235 338.441 726.288 338.441C722.021 338.441 718.022 337.695 714.293 336.182C710.544 334.669 707.271 332.535 704.453 329.759C701.636 326.982 699.419 323.605 697.803 319.627C696.187 315.649 695.38 311.194 695.38 306.242V268.034H712.926V306.242C712.926 308.562 713.278 310.634 713.983 312.458C714.687 314.281 715.64 315.835 716.841 317.078C718.043 318.321 719.452 319.275 721.068 319.917C722.683 320.559 724.403 320.891 726.267 320.891C728.132 320.891 729.789 320.476 731.405 319.627C733.021 318.777 734.429 317.679 735.631 316.312C736.833 314.944 737.785 313.369 738.469 311.629C739.153 309.888 739.505 308.086 739.505 306.242V268.034H757.114V337.135H752.867L747.066 329.075H747.046Z" fill="#F2EDD9"/>
<path d="M837.285 337.135H833.038L826.202 327.645C824.524 329.158 822.742 330.567 820.878 331.872C819.014 333.178 817.045 334.317 814.974 335.291C812.902 336.265 810.789 337.032 808.614 337.591C806.439 338.15 804.243 338.441 802.006 338.441C797.137 338.441 792.58 337.529 788.291 335.706C784.003 333.882 780.274 331.334 777.063 328.101C773.852 324.848 771.325 320.994 769.481 316.56C767.637 312.105 766.705 307.257 766.705 302.015C766.705 296.773 767.637 291.966 769.481 287.49C771.325 283.015 773.852 279.14 777.063 275.866C780.274 272.592 784.003 270.044 788.291 268.179C792.58 266.335 797.137 265.403 802.006 265.403C803.559 265.403 805.154 265.527 806.812 265.796C808.469 266.045 810.085 266.48 811.659 267.06C813.234 267.64 814.705 268.407 816.072 269.36C817.439 270.313 818.62 271.473 819.552 272.841V240.58H837.285V337.177V337.135ZM819.552 301.973C819.552 299.57 819.096 297.228 818.164 294.97C817.232 292.711 815.989 290.702 814.394 288.961C812.799 287.221 810.934 285.812 808.821 284.776C806.687 283.719 804.429 283.201 802.006 283.201C799.582 283.201 797.324 283.636 795.19 284.486C793.056 285.356 791.212 286.578 789.638 288.195C788.064 289.811 786.841 291.779 785.93 294.1C785.039 296.42 784.583 299.052 784.583 301.973C784.583 304.522 785.039 306.925 785.93 309.205C786.841 311.484 788.064 313.494 789.638 315.213C791.212 316.933 793.056 318.28 795.19 319.275C797.324 320.269 799.582 320.766 802.006 320.766C804.429 320.766 806.687 320.248 808.821 319.192C810.955 318.135 812.819 316.747 814.394 315.006C815.989 313.266 817.232 311.256 818.164 308.997C819.096 306.739 819.552 304.398 819.552 301.994V301.973Z" fill="#F2EDD9"/>
<path d="M878.2 320.228C878.883 320.435 879.567 320.58 880.271 320.642C880.955 320.704 881.639 320.746 882.343 320.746C884.062 320.746 885.72 320.518 887.315 320.041C888.91 319.565 890.401 318.902 891.81 318.011C893.198 317.14 894.462 316.063 895.56 314.778C896.658 313.514 897.548 312.105 898.232 310.551L911.138 323.522C909.502 325.843 907.617 327.936 905.504 329.78C903.37 331.624 901.07 333.198 898.605 334.483C896.14 335.768 893.53 336.762 890.795 337.425C888.06 338.088 885.264 338.42 882.384 338.42C877.516 338.42 872.958 337.508 868.67 335.706C864.382 333.903 860.653 331.375 857.442 328.163C854.231 324.931 851.704 321.098 849.86 316.643C848.016 312.188 847.084 307.298 847.084 301.953C847.084 296.607 848.016 291.51 849.86 286.972C851.704 282.455 854.231 278.601 857.442 275.431C860.653 272.261 864.382 269.774 868.67 268.013C872.958 266.252 877.516 265.361 882.384 265.361C885.264 265.361 888.081 265.713 890.836 266.397C893.592 267.081 896.202 268.075 898.667 269.36C901.132 270.645 903.453 272.24 905.607 274.105C907.762 275.97 909.647 278.083 911.283 280.404L878.262 320.207L878.2 320.228ZM887.232 283.906C886.424 283.615 885.616 283.408 884.808 283.325C884 283.242 883.192 283.201 882.322 283.201C879.919 283.201 877.64 283.636 875.507 284.527C873.373 285.418 871.529 286.661 869.955 288.298C868.38 289.935 867.137 291.903 866.246 294.203C865.335 296.503 864.9 299.093 864.9 301.973C864.9 302.616 864.941 303.341 865.003 304.17C865.066 304.978 865.169 305.807 865.335 306.656C865.48 307.506 865.666 308.293 865.873 309.08C866.081 309.847 866.371 310.551 866.723 311.152L887.232 283.926V283.906Z" fill="#F2EDD9"/>
</svg>
