<svg width="59" height="54" viewBox="0 0 59 54" fill="none" xmlns="http://www.w3.org/2000/svg">
<path d="M58.9997 23.8474V26.505C58.4333 29.1567 57.9259 31.7996 56.9435 34.3362C47.0315 59.9173 9.92938 60.9479 1.44518 35.0035C0.819784 33.09 0.548384 31.0998 0.0557343 29.1597C0.182584 27.3466 -0.118316 25.3327 0.0557343 23.5492C2.23283 1.13651 31.4024 -8.97428 44.7984 9.87715C59.2298 30.1844 34.3819 54.9682 16.2601 39.6514C1.03218 26.7767 16.2748 2.47714 32.6709 11.9885C44.7836 19.0164 38.273 37.4102 25.8269 33.905C18.1923 31.7553 17.9416 20.5372 24.6558 19.7104C29.715 19.0873 30.1074 24.0364 26.6441 24.6801C25.9626 24.8071 25.1809 24.1634 24.8741 25.2382C24.1661 27.7157 26.7591 29.6647 29.0483 29.4461C34.2492 28.9471 35.6475 21.9251 32.4644 18.0981C24.8859 8.98832 9.87923 20.2596 16.5079 32.3134C23.1365 44.3672 40.1905 40.0412 43.521 27.388C49.1201 6.12104 17.6377 -4.50356 7.26258 16.4533C-4.70852 40.6347 29.3374 61.7304 47.6569 40.3896C52.4713 34.7821 52.6867 31.1884 54.0584 24.3612C54.6248 21.5412 57.7046 21.4319 58.9997 23.8504V23.8474Z" fill="#E3584B"/>
</svg>
