<svg width="205" height="205" viewBox="0 0 205 205" fill="none" xmlns="http://www.w3.org/2000/svg">
<path d="M102.539 204.901H102.452C88.693 204.901 75.3022 202.168 62.6522 196.78C50.4826 191.595 39.5392 184.193 30.1224 174.778C20.7056 165.364 13.3057 154.418 8.12056 142.249C2.73271 129.599 0 116.208 0 102.452C0 88.6955 2.66014 76.1231 7.90535 63.6407C12.9929 51.5337 20.2426 40.5903 29.4567 31.1159C38.841 21.4638 49.7594 13.8588 61.9064 8.51345C74.7367 2.86284 88.3802 0 102.449 0C116.208 0 129.596 2.73271 142.246 8.12056C154.416 13.3057 165.359 20.7081 174.773 30.1224C184.188 39.5367 191.59 50.4826 196.775 62.6522C202.163 75.3022 204.896 88.693 204.896 102.452C204.911 128.493 204.928 156.265 204.943 183.049L204.956 204.543L167.053 204.566L167.041 183.069C167.026 156.285 167.008 128.513 166.993 102.459C166.993 66.8564 138.037 37.9001 102.447 37.9001C85.2096 37.9001 68.9359 44.872 56.6262 57.5321C44.7244 69.7743 37.8976 86.143 37.8976 102.447C37.8976 138.012 66.8113 166.951 102.367 166.993C105.935 166.961 112.321 166.928 118.498 166.896C124.611 166.866 130.935 166.833 134.368 166.801L134.716 204.701C131.205 204.733 124.844 204.766 118.693 204.798C112.499 204.831 106.093 204.863 102.622 204.896H102.534L102.539 204.901Z" fill="#E3584B"/>
<path d="M134.573 134.979C131.886 135.004 105.382 135.029 102.697 135.054C85.0742 135.054 70.5698 120.329 70.5698 102.437C70.5698 84.544 84.5787 69.8193 102.697 69.8193C120.319 69.8193 134.821 84.544 134.821 102.437C134.829 115.372 134.836 121.588 134.844 134.521" fill="#E3584B"/>
<path d="M134.573 134.979C131.886 135.004 105.382 135.029 102.697 135.054C85.0742 135.054 70.5698 120.329 70.5698 102.437C70.5698 84.544 84.5787 69.8193 102.697 69.8193C120.319 69.8193 134.821 84.544 134.821 102.437C134.829 115.372 134.836 121.588 134.844 134.521" stroke="#F3E3CE" stroke-miterlimit="10"/>
</svg>
